<svg id="svgpaper" xmlns="http://www.w3.org/2000/svg">
		<g id="sketch_group" fill="red"></g><g id="line_group" fill="blue"><polygon name="polygon" points="567.9724267208494,260.6278654207599 309.92185167672324,101.32971502535565 229.22865392292806,230.13811143979729 485.1557237630059,392.8259564776872" fill="blue"></polygon></g><g id="f3dsphere_group" fill="blue"><ellipse cx="270.5" cy="166.5" rx="76.5" ry="76.5" class="draggable" onmouseover="F3D_Sphere.overElement(evt)" onmouseout="F3D_Sphere.outElement(evt)" onwheel="F3D_Sphere.wheelElement(evt)" fill="blue"></ellipse><ellipse cx="527" cy="327.5" rx="78.5" ry="78.5" class="draggable" onmouseover="F3D_Sphere.overElement(evt)" onmouseout="F3D_Sphere.outElement(evt)" onwheel="F3D_Sphere.wheelElement(evt)" fill="blue"></ellipse></g><g id="line_group" fill="blue"><polygon name="polygon" points="556.16138855806,89.20828258768006 519.529110846448,146.36662607014404 545.363862126525,165.15553609201814 588.4548276581562,112.6944201150227" fill="blue"></polygon><polygon name="polygon" points="520.8789106355192,144.5559015411443 298.9091829766394,402.1669261558584 316.904046595345,418.04474699589275 544.8720621271268,165.7263293278569" fill="blue"></polygon><polygon name="polygon" points="296.98365734030494,405.2418286701525 268.65577156020333,470.8278857801016 282.94422843979675,477.97211421989834 318.4163426596951,415.9581713298475" fill="blue"></polygon><polygon name="polygon" points="268.0100313834728,474.4005015691736 270.0050156917364,514.2002507845868 277.95508405888705,514.5977542029443 283.9101681177741,475.1955084058887" fill="blue"></polygon></g><g id="f3dsphere_group" fill="blue"><ellipse cx="573" cy="100" rx="20" ry="20" class="draggable" onmouseover="F3D_Sphere.overElement(evt)" onmouseout="F3D_Sphere.outElement(evt)" onwheel="F3D_Sphere.wheelElement(evt)"></ellipse><ellipse cx="533" cy="155" rx="16" ry="16" class="draggable" onmouseover="F3D_Sphere.overElement(evt)" onmouseout="F3D_Sphere.outElement(evt)" onwheel="F3D_Sphere.wheelElement(evt)"></ellipse><ellipse cx="308" cy="410" rx="12" ry="12" class="draggable" onmouseover="F3D_Sphere.overElement(evt)" onmouseout="F3D_Sphere.outElement(evt)" onwheel="F3D_Sphere.wheelElement(evt)"></ellipse><ellipse cx="276" cy="474" rx="8" ry="8" class="draggable" onmouseover="F3D_Sphere.overElement(evt)" onmouseout="F3D_Sphere.outElement(evt)" onwheel="F3D_Sphere.wheelElement(evt)"></ellipse><ellipse cx="274" cy="514" rx="4" ry="4" class="draggable" onmouseover="F3D_Sphere.overElement(evt)" onmouseout="F3D_Sphere.outElement(evt)" onwheel="F3D_Sphere.wheelElement(evt)"></ellipse></g><g id="line_group" fill="blue"><polygon name="polygon" points="772.3289352648469,291.38763066874105 742.2631482118776,455.11010453499284 773.5798815446599,461.6424292792542 811.4748519308249,299.5530365990677" fill="blue"></polygon><polygon name="polygon" points="743.2949819970231,451.6942529758858 705.0521728725813,540.8765805429073 728.6085167825913,551.8516953191618 772.2874052708815,465.20208654666067" fill="blue"></polygon><polygon name="polygon" points="708.8560371594028,535.8670897935997 643.7354131995405,588.2054536873845 655.689397216828,604.2237922705496 724.3962163818763,556.6909299517145" fill="blue"></polygon><polygon name="polygon" points="646.3967500651526,586.6717316769391 566.8380500390915,617.4030390061635 570.6286166275752,628.7747387716144 652.7143610459585,605.6245646193572" fill="blue"></polygon><polygon name="polygon" points="567.800185432669,617.1211867690816 504.4000927163345,630.0605933845409 505.3253600958676,635.9823046135526 569.6507201917352,628.9646092271051" fill="blue"></polygon></g><g id="f3dsphere_group" fill="blue"><ellipse cx="792" cy="295" rx="20" ry="20" class="draggable" onmouseover="F3D_Sphere.overElement(evt)" onmouseout="F3D_Sphere.outElement(evt)" onwheel="F3D_Sphere.wheelElement(evt)"></ellipse><ellipse cx="758" cy="458" rx="16.666666666666668" ry="16.666666666666668" class="draggable" onmouseover="F3D_Sphere.overElement(evt)" onmouseout="F3D_Sphere.outElement(evt)" onwheel="F3D_Sphere.wheelElement(evt)"></ellipse><ellipse cx="717" cy="546" rx="13.333333333333334" ry="13.333333333333334" class="draggable" onmouseover="F3D_Sphere.overElement(evt)" onmouseout="F3D_Sphere.outElement(evt)" onwheel="F3D_Sphere.wheelElement(evt)"></ellipse><ellipse cx="650" cy="596" rx="10" ry="10" class="draggable" onmouseover="F3D_Sphere.overElement(evt)" onmouseout="F3D_Sphere.outElement(evt)" onwheel="F3D_Sphere.wheelElement(evt)"></ellipse><ellipse cx="569" cy="623" rx="6.666666666666667" ry="6.666666666666667" class="draggable" onmouseover="F3D_Sphere.overElement(evt)" onmouseout="F3D_Sphere.outElement(evt)" onwheel="F3D_Sphere.wheelElement(evt)"></ellipse><ellipse cx="505" cy="633" rx="3.3333333333333335" ry="3.3333333333333335" class="draggable" onmouseover="F3D_Sphere.overElement(evt)" onmouseout="F3D_Sphere.outElement(evt)" onwheel="F3D_Sphere.wheelElement(evt)"></ellipse></g></svg>
