<svg id="svgpaper" xmlns="http://www.w3.org/2000/svg">
		<g id="sketch_group" fill="red"></g><g id="line_group" fill="blue"><polygon name="polygon" points="167.73746121549874,124.76213113916441 113.14973371050947,353.24009507844903 185.61322191412756,390.65147736031696 340.269575986018,213.83685085789762" fill="blue"></polygon></g><g id="f3dsphere_group" fill="blue"><ellipse cx="265" cy="148" rx="100" ry="101" class="draggable" onmouseover="F3D_Sphere.overElement(evt)" onmouseout="F3D_Sphere.outElement(evt)" onwheel="F3D_Sphere.wheelElement(evt)" fill="blue"></ellipse><ellipse cx="154" cy="363" rx="42.5" ry="42.5" class="draggable" onmouseover="F3D_Sphere.overElement(evt)" onmouseout="F3D_Sphere.outElement(evt)" onwheel="F3D_Sphere.wheelElement(evt)" fill="green"></ellipse></g><g id="line_group" fill="blue"><polygon name="polygon" points="62.736882487889716,170.53780069820323 319.21055977567994,352.64560629279697 353.6789712312111,306.0118731470784 104.33668941697897,114.25570897061175" fill="blue"></polygon></g><g id="f3dsphere_group" fill="blue"><ellipse cx="83" cy="142.5" rx="35" ry="35" class="draggable" onmouseover="F3D_Sphere.overElement(evt)" onmouseout="F3D_Sphere.outElement(evt)" onwheel="F3D_Sphere.wheelElement(evt)" fill="blue"></ellipse><ellipse cx="336.5" cy="329.5" rx="29.5" ry="29.5" class="draggable" onmouseover="F3D_Sphere.overElement(evt)" onmouseout="F3D_Sphere.outElement(evt)" onwheel="F3D_Sphere.wheelElement(evt)" fill="blue"></ellipse></g><g id="line_group" fill="blue"><polygon name="polygon" points="365.86319883544047,415.7591977521293 285.39739912658035,463.06939831409693 299.1777897038156,489.66875687015573 384.2370529384208,451.22500916020766" fill="blue"></polygon><polygon name="polygon" points="287.4319169878351,462.0717391046247 223.28794465855674,487.71449273641645 229.33619542899797,506.7232808720889 296.5042931434969,490.5849213081333" fill="blue"></polygon><polygon name="polygon" points="225.80293961084652,487.0719062038718 93.40146980542326,503.0359531019359 94.2251444562275,512.994928425296 227.450288912455,506.989856850592" fill="blue"></polygon></g><g id="f3dsphere_group" fill="blue"><ellipse cx="376" cy="433" rx="20" ry="20" class="draggable" onmouseover="F3D_Sphere.overElement(evt)" onmouseout="F3D_Sphere.outElement(evt)" onwheel="F3D_Sphere.wheelElement(evt)"></ellipse><ellipse cx="293" cy="476" rx="15" ry="15" class="draggable" onmouseover="F3D_Sphere.overElement(evt)" onmouseout="F3D_Sphere.outElement(evt)" onwheel="F3D_Sphere.wheelElement(evt)"></ellipse><ellipse cx="227" cy="497" rx="10" ry="10" class="draggable" onmouseover="F3D_Sphere.overElement(evt)" onmouseout="F3D_Sphere.outElement(evt)" onwheel="F3D_Sphere.wheelElement(evt)"></ellipse><ellipse cx="94" cy="508" rx="5" ry="5" class="draggable" onmouseover="F3D_Sphere.overElement(evt)" onmouseout="F3D_Sphere.outElement(evt)" onwheel="F3D_Sphere.wheelElement(evt)"></ellipse></g><g id="line_group" fill="blue"><polygon name="polygon" points="238,384 238,399 265,408 274,396" fill="blue"></polygon><polygon name="polygon" points="242.6620359765489,388.1313984409295 203.10802398436593,425.7542656272863 215.4610275963329,441.37718196006807 261.1915413944994,411.56577294010214" fill="blue"></polygon><polygon name="polygon" points="207.41615483433006,423.33957846883254 155.70807741716504,437.16978923441627 157.37496756553395,446.9859201081443 210.74993513106787,442.97184021628857" fill="blue"></polygon></g><g id="f3dsphere_group" fill="blue"><ellipse cx="258" cy="384" rx="20" ry="20" class="draggable" onmouseover="F3D_Sphere.overElement(evt)" onmouseout="F3D_Sphere.outElement(evt)" onwheel="F3D_Sphere.wheelElement(evt)"></ellipse><ellipse cx="253" cy="399" rx="15" ry="15" class="draggable" onmouseover="F3D_Sphere.overElement(evt)" onmouseout="F3D_Sphere.outElement(evt)" onwheel="F3D_Sphere.wheelElement(evt)"></ellipse><ellipse cx="210" cy="433" rx="10" ry="10" class="draggable" onmouseover="F3D_Sphere.overElement(evt)" onmouseout="F3D_Sphere.outElement(evt)" onwheel="F3D_Sphere.wheelElement(evt)" fill="blue"></ellipse><ellipse cx="157" cy="442" rx="5" ry="5" class="draggable" onmouseover="F3D_Sphere.overElement(evt)" onmouseout="F3D_Sphere.outElement(evt)" onwheel="F3D_Sphere.wheelElement(evt)"></ellipse></g></svg>
