<svg id="svgpaper" xmlns="http://www.w3.org/2000/svg">
		<g id="sketch_group" fill="red"></g><g id="line_group" fill="#47FF5B"><polygon name="polygon" points="727.8460104619085,264.1392244238034 487.44733278471153,128.72328824546776 424.48447049397737,230.76654782010598 653.3399567512063,384.89041492045874" fill="717510"></polygon><polygon name="polygon" points="645.8991664439052,272.87268613678043 468.5429105973228,430.1105903204782 550.5568973275547,528.3115481158877 736.883432972756,381.8143736910629" fill="717510"></polygon><polygon name="polygon" points="763.2898336841829,479.68517643207156 527.6480686639452,416.20322168785367 487.3942220996985,537.4875386087006 714.2304581840074,627.5004376793538" fill="717510"></polygon></g><g id="line_group" fill="#FF759E"><polygon name="polygon" points="304,48.000000000000114 209.20000000000005,174.40000000000003 234.29783827061647,194.2353883106485 335.3722978382705,72.79423538831077" fill="FF759E"></polygon><polygon name="polygon" points="207.46132339235797,177.31966449207835 151.09599254426848,299.98974836905876 172.58823529411765,310.64705882352945 236.11764705882354,191.5294117647059" fill="FF759E"></polygon><polygon name="polygon" points="150.26066144446162,302.5124449195142 123.17377429630776,430.34162994634283 138.71013442224108,434.13396981960216 173.56520163336162,308.2009547294032" fill="FF759E"></polygon><polygon name="polygon" points="123.0002732660455,432.06612247767055 124.00013663302275,553.0330612388352 131.99331046595339,553.2312391024616 138.98662093190677,432.4624782049233" fill="FF759E"></polygon></g><g id="f3dsphere_group" fill="#FF759E"><ellipse cx="320" cy="60" rx="20" ry="20" class="draggable" onmouseover="F3D_Sphere.overElement(evt)" onmouseout="F3D_Sphere.outElement(evt)" onwheel="F3D_Sphere.wheelElement(evt)"></ellipse><ellipse cx="222" cy="184" rx="16" ry="16" class="draggable" onmouseover="F3D_Sphere.overElement(evt)" onmouseout="F3D_Sphere.outElement(evt)" onwheel="F3D_Sphere.wheelElement(evt)"></ellipse><ellipse cx="162" cy="305" rx="12" ry="12" class="draggable" onmouseover="F3D_Sphere.overElement(evt)" onmouseout="F3D_Sphere.outElement(evt)" onwheel="F3D_Sphere.wheelElement(evt)"></ellipse><ellipse cx="131" cy="432" rx="8" ry="8" class="draggable" onmouseover="F3D_Sphere.overElement(evt)" onmouseout="F3D_Sphere.outElement(evt)" onwheel="F3D_Sphere.wheelElement(evt)"></ellipse><ellipse cx="128" cy="553" rx="4" ry="4" class="draggable" onmouseover="F3D_Sphere.overElement(evt)" onmouseout="F3D_Sphere.outElement(evt)" onwheel="F3D_Sphere.wheelElement(evt)"></ellipse></g><g id="line_group" fill="#755530"><polygon name="polygon" points="683.9706472857214,88.17352852328429 787.576517828577,177.13882281862743 809.1161154422507,153.49209065578992 710.8951443028135,58.615113319737475" fill="755530"></polygon><polygon name="polygon" points="786.3680594196362,175.9862622549658 826.2760445647272,218.23969669122437 844.7705081754025,203.03313772244687 811.0273442338699,155.71085029659582" fill="755530"></polygon><polygon name="polygon" points="824.9250959162636,216.51891921283828 842.283397277509,243.34594614189217 856.5806335807358,236.44383206447236 846.3709503711038,206.1657480967085" fill="755530"></polygon><polygon name="polygon" points="841.2975680893754,241.16160650031242 856.1487840446878,294.0808032501562 863.9671198077983,292.48817929841147 856.9342396155965,237.97635859682293" fill="755530"></polygon></g><g id="f3dsphere_group" fill="#755530"><ellipse cx="697" cy="73" rx="20" ry="20" class="draggable" onmouseover="F3D_Sphere.overElement(evt)" onmouseout="F3D_Sphere.outElement(evt)" onwheel="F3D_Sphere.wheelElement(evt)"></ellipse><ellipse cx="798" cy="165" rx="16" ry="16" class="draggable" onmouseover="F3D_Sphere.overElement(evt)" onmouseout="F3D_Sphere.outElement(evt)" onwheel="F3D_Sphere.wheelElement(evt)" fill="717510"></ellipse><ellipse cx="835" cy="210" rx="12" ry="12" class="draggable" onmouseover="F3D_Sphere.overElement(evt)" onmouseout="F3D_Sphere.outElement(evt)" onwheel="F3D_Sphere.wheelElement(evt)"></ellipse><ellipse cx="849" cy="239" rx="8" ry="8" class="draggable" onmouseover="F3D_Sphere.overElement(evt)" onmouseout="F3D_Sphere.outElement(evt)" onwheel="F3D_Sphere.wheelElement(evt)"></ellipse><ellipse cx="860" cy="293" rx="4" ry="4" class="draggable" onmouseover="F3D_Sphere.overElement(evt)" onmouseout="F3D_Sphere.outElement(evt)" onwheel="F3D_Sphere.wheelElement(evt)"></ellipse></g><g id="f3dsphere_group" fill="#717510"><ellipse cx="458.5" cy="181.5" rx="60.5" ry="60.5" class="draggable" onmouseover="F3D_Sphere.overElement(evt)" onmouseout="F3D_Sphere.outElement(evt)" onwheel="F3D_Sphere.wheelElement(evt)" fill="FF759E"></ellipse><ellipse cx="693.5" cy="326.5" rx="71.5" ry="71.5" class="draggable" onmouseover="F3D_Sphere.overElement(evt)" onmouseout="F3D_Sphere.outElement(evt)" onwheel="F3D_Sphere.wheelElement(evt)" fill="2B1475"></ellipse><ellipse cx="511.5" cy="478" rx="64" ry="64" class="draggable" onmouseover="F3D_Sphere.overElement(evt)" onmouseout="F3D_Sphere.outElement(evt)" onwheel="F3D_Sphere.wheelElement(evt)" fill="FF759E"></ellipse><ellipse cx="743.5" cy="555.5" rx="78.5" ry="78.5" class="draggable" onmouseover="F3D_Sphere.overElement(evt)" onmouseout="F3D_Sphere.outElement(evt)" onwheel="F3D_Sphere.wheelElement(evt)"></ellipse></g><g id="f3dhanddraw_circle_group" fill="#2B1475"><ellipse cx="316.5" cy="365" rx="75" ry="75" class="draggable" onmouseover="F3D_Sphere.overElement(evt)" onmouseout="F3D_Sphere.outElement(evt)" onwheel="F3D_Sphere.wheelElement(evt)" fill="2B1475"></ellipse></g></svg>
