<svg id="svgpaper" xmlns="http://www.w3.org/2000/svg">
		<g id="sketch_group" fill="red"></g><g id="f3dhanddraw_circle_group" fill="#0000FF"><ellipse id="ellipse_0" cx="576" cy="239" rx="47" ry="47" class="draggable" onmouseover="F3D_Sphere.overElement(evt)" onmouseout="F3D_Sphere.outElement(evt)" onwheel="F3D_Sphere.wheelElement(evt)" fill="0000FF"></ellipse></g><g id="line_group" fill="#0000FF"><polygon name="polygon" points="559.7226600646973,201.37606811523438 501.72266006469727,238.37606811523438 552.2773361206055,317.6239356994629 610.2773361206055,280.6239356994629" fill="0000FF"></polygon><polygon name="polygon" points="509.6692199707031,234.3119773864746 388.6692199707031,282.31197357177734 423.33079528808594,369.68802642822266 544.3307952880859,321.68802642822266" fill="0000FF"></polygon><polygon name="polygon" points="399.4497375488281,279.45868492126465 264.4497375488281,298.45868492126465 277.55025482177734,391.541316986084 412.55025482177734,372.541316986084" fill="0000FF"></polygon></g><g id="f3dsphere_group" fill="#0000FF"><ellipse id="ellipse_1" cx="585" cy="241" rx="47" ry="47" class="draggable" onmouseover="F3D_Sphere.overElement(evt)" onmouseout="F3D_Sphere.outElement(evt)" onwheel="F3D_Sphere.wheelElement(evt)" fill="0000FF"></ellipse><ellipse id="ellipse_3" cx="527" cy="278" rx="47" ry="47" class="draggable" onmouseover="F3D_Sphere.overElement(evt)" onmouseout="F3D_Sphere.outElement(evt)" onwheel="F3D_Sphere.wheelElement(evt)" fill="0000FF"></ellipse><ellipse id="ellipse_5" cx="406" cy="326" rx="47" ry="47" class="draggable" onmouseover="F3D_Sphere.overElement(evt)" onmouseout="F3D_Sphere.outElement(evt)" onwheel="F3D_Sphere.wheelElement(evt)" fill="0000FF"></ellipse><ellipse id="ellipse_7" cx="271" cy="345" rx="47" ry="47" class="draggable" onmouseover="F3D_Sphere.overElement(evt)" onmouseout="F3D_Sphere.outElement(evt)" onwheel="F3D_Sphere.wheelElement(evt)" fill="0000FF"></ellipse></g><g id="line_group" fill="#0000FF"><polygon name="polygon" points="607.2558441162109,206.36236190795898 494.25584411621094,134.36235809326172 443.74415588378906,213.63763427734375 556.7441558837891,285.637638092041" fill="0000FF"></polygon><polygon name="polygon" points="503.7771873474121,142.38438415527344 433.77718353271484,65.38438415527344 364.2228202819824,128.6156234741211 434.2228240966797,205.6156234741211" fill="0000FF"></polygon></g><g id="f3dsphere_group" fill="#0000FF"><ellipse id="ellipse_9" cx="582" cy="246" rx="47" ry="47" class="draggable" onmouseover="F3D_Sphere.overElement(evt)" onmouseout="F3D_Sphere.outElement(evt)" onwheel="F3D_Sphere.wheelElement(evt)" fill="0000FF"></ellipse><ellipse id="ellipse_11" cx="469" cy="174" rx="47" ry="47" class="draggable" onmouseover="F3D_Sphere.overElement(evt)" onmouseout="F3D_Sphere.outElement(evt)" onwheel="F3D_Sphere.wheelElement(evt)" fill="0000FF"></ellipse><ellipse id="ellipse_13" cx="399" cy="97" rx="47" ry="47" class="draggable" onmouseover="F3D_Sphere.overElement(evt)" onmouseout="F3D_Sphere.outElement(evt)" onwheel="F3D_Sphere.wheelElement(evt)" fill="0000FF"></ellipse></g><g id="line_group" fill="#0000FF"><polygon name="polygon" points="648.0120782852173,248.58584594726562 658.0120782852173,200.58584594726562 565.9879188537598,181.4141502380371 555.9879188537598,229.41414642333984" fill="0000FF"></polygon><polygon name="polygon" points="654.0380783081055,212.01903915405273 675.0380783081055,170.01903915405273 590.9619235992432,127.98096084594727 569.9619235992432,169.98096084594727" fill="0000FF"></polygon><polygon name="polygon" points="670.2374114990234,177.67708587646484 737.2374114990234,90.67708587646484 662.7625846862793,33.322914123535156 595.7625885009766,120.32290649414062" fill="0000FF"></polygon><polygon name="polygon" points="726.952730178833,100.50389766693115 746.952730178833,86.50389766693115 693.0472717285156,9.496100425720215 673.0472717285156,23.496100425720215" fill="0000FF"></polygon></g><g id="f3dsphere_group" fill="#0000FF"><ellipse id="ellipse_15" cx="602" cy="239" rx="47" ry="47" class="draggable" onmouseover="F3D_Sphere.overElement(evt)" onmouseout="F3D_Sphere.outElement(evt)" onwheel="F3D_Sphere.wheelElement(evt)" fill="0000FF"></ellipse><ellipse id="ellipse_17" cx="612" cy="191" rx="47" ry="47" class="draggable" onmouseover="F3D_Sphere.overElement(evt)" onmouseout="F3D_Sphere.outElement(evt)" onwheel="F3D_Sphere.wheelElement(evt)" fill="0000FF"></ellipse><ellipse id="ellipse_19" cx="633" cy="149" rx="47" ry="47" class="draggable" onmouseover="F3D_Sphere.overElement(evt)" onmouseout="F3D_Sphere.outElement(evt)" onwheel="F3D_Sphere.wheelElement(evt)"></ellipse><ellipse id="ellipse_21" cx="700" cy="62" rx="47" ry="47" class="draggable" onmouseover="F3D_Sphere.overElement(evt)" onmouseout="F3D_Sphere.outElement(evt)" onwheel="F3D_Sphere.wheelElement(evt)" fill="0000FF"></ellipse><ellipse id="ellipse_23" cx="720" cy="48" rx="47" ry="47" class="draggable" onmouseover="F3D_Sphere.overElement(evt)" onmouseout="F3D_Sphere.outElement(evt)" onwheel="F3D_Sphere.wheelElement(evt)" fill="0000FF"></ellipse></g><g id="line_group" fill="#0000FF"><polygon name="polygon" points="606.6633224487305,293.69603061676025 746.6633224487305,309.69602966308594 757.3367004394531,216.30397033691406 617.3367004394531,200.30397033691406" fill="0000FF"></polygon><polygon name="polygon" points="734.6745910644531,306.6901664733887 792.6745910644531,329.6901664733887 827.3254127502441,242.30983924865723 769.3254127502441,219.30983924865723" fill="0000FF"></polygon><polygon name="polygon" points="777.4804439544678,319.93345069885254 801.4804439544678,342.93345069885254 866.5195503234863,275.066556930542 842.5195484161377,252.06655502319336" fill="0000FF"></polygon></g><g id="f3dsphere_group" fill="#0000FF"><ellipse id="ellipse_25" cx="612" cy="247" rx="47" ry="47" class="draggable" onmouseover="F3D_Sphere.overElement(evt)" onmouseout="F3D_Sphere.outElement(evt)" onwheel="F3D_Sphere.wheelElement(evt)" fill="0000FF"></ellipse><ellipse id="ellipse_27" cx="752" cy="263" rx="47" ry="47" class="draggable" onmouseover="F3D_Sphere.overElement(evt)" onmouseout="F3D_Sphere.outElement(evt)" onwheel="F3D_Sphere.wheelElement(evt)" fill="0000FF"></ellipse><ellipse id="ellipse_29" cx="810" cy="286" rx="47" ry="47" class="draggable" onmouseover="F3D_Sphere.overElement(evt)" onmouseout="F3D_Sphere.outElement(evt)" onwheel="F3D_Sphere.wheelElement(evt)" fill="0000FF"></ellipse><ellipse id="ellipse_31" cx="834" cy="309" rx="47" ry="47" class="draggable" onmouseover="F3D_Sphere.overElement(evt)" onmouseout="F3D_Sphere.outElement(evt)" onwheel="F3D_Sphere.wheelElement(evt)" fill="0000FF"></ellipse></g><g id="line_group" fill="#0000FF"><polygon name="polygon" points="537.9988594055176,264.9710922241211 582.9988594055176,366.9710922241211 669.0011367797852,329.0289077758789 624.0011367797852,227.0289077758789" fill="0000FF"></polygon><polygon name="polygon" points="580.6766738891602,360.4416923522949 594.6766738891602,411.4416923522949 685.3233270645142,386.55830001831055 671.3233261108398,335.55830001831055" fill="0000FF"></polygon><polygon name="polygon" points="593.440803527832,405.4219551086426 601.4408040046692,463.42195892333984 694.5591940879822,450.57804107666016 686.5591940879822,392.57804107666016" fill="0000FF"></polygon><polygon name="polygon" points="601.0019799470901,456.5688247680664 600.0019800662994,565.5688247680664 693.9980264902115,566.4311752319336 694.9980265498161,457.4311752319336" fill="0000FF"></polygon></g><g id="f3dsphere_group" fill="#0000FF"><ellipse id="ellipse_33" cx="581" cy="246" rx="47" ry="47" class="draggable" onmouseover="F3D_Sphere.overElement(evt)" onmouseout="F3D_Sphere.outElement(evt)" onwheel="F3D_Sphere.wheelElement(evt)" fill="0000FF"></ellipse><ellipse id="ellipse_35" cx="626" cy="348" rx="47" ry="47" class="draggable" onmouseover="F3D_Sphere.overElement(evt)" onmouseout="F3D_Sphere.outElement(evt)" onwheel="F3D_Sphere.wheelElement(evt)" fill="0000FF"></ellipse><ellipse id="ellipse_37" cx="640" cy="399" rx="47" ry="47" class="draggable" onmouseover="F3D_Sphere.overElement(evt)" onmouseout="F3D_Sphere.outElement(evt)" onwheel="F3D_Sphere.wheelElement(evt)" fill="0000FF"></ellipse><ellipse id="ellipse_39" cx="648" cy="457" rx="47" ry="47" class="draggable" onmouseover="F3D_Sphere.overElement(evt)" onmouseout="F3D_Sphere.outElement(evt)" onwheel="F3D_Sphere.wheelElement(evt)" fill="0000FF"></ellipse><ellipse id="ellipse_41" cx="647" cy="566" rx="47" ry="47" class="draggable" onmouseover="F3D_Sphere.overElement(evt)" onmouseout="F3D_Sphere.outElement(evt)" onwheel="F3D_Sphere.wheelElement(evt)" fill="0000FF"></ellipse></g><g id="line_group" fill="#0000FF"><polygon name="polygon" points="523.9020233154297,258.76473236083984 496.9020233154297,350.76473236083984 587.0979671478271,377.2352752685547 614.0979690551758,285.2352752685547" fill="0000FF"></polygon><polygon name="polygon" points="498.3119773864746,346.66920471191406 450.3119773864746,467.66920471191406 537.6880264282227,502.3307800292969 585.6880226135254,381.3307800292969" fill="0000FF"></polygon><polygon name="polygon" points="454.4132423400879,459.6644821166992 406.41324615478516,534.6644744873047 485.5867614746094,585.3355255126953 533.5867614746094,510.3355255126953" fill="0000FF"></polygon><polygon name="polygon" points="412.7659797668457,526.7659797668457 366.76597595214844,572.765983581543 433.23401641845703,639.2340240478516 479.2340202331543,593.2340202331543" fill="0000FF"></polygon></g><g id="f3dsphere_group" fill="#0000FF"><ellipse id="ellipse_43" cx="569" cy="272" rx="47" ry="47" class="draggable" onmouseover="F3D_Sphere.overElement(evt)" onmouseout="F3D_Sphere.outElement(evt)" onwheel="F3D_Sphere.wheelElement(evt)"></ellipse><ellipse id="ellipse_45" cx="542" cy="364" rx="47" ry="47" class="draggable" onmouseover="F3D_Sphere.overElement(evt)" onmouseout="F3D_Sphere.outElement(evt)" onwheel="F3D_Sphere.wheelElement(evt)"></ellipse><ellipse id="ellipse_47" cx="494" cy="485" rx="47" ry="47" class="draggable" onmouseover="F3D_Sphere.overElement(evt)" onmouseout="F3D_Sphere.outElement(evt)" onwheel="F3D_Sphere.wheelElement(evt)"></ellipse><ellipse id="ellipse_49" cx="446" cy="560" rx="47" ry="47" class="draggable" onmouseover="F3D_Sphere.overElement(evt)" onmouseout="F3D_Sphere.outElement(evt)" onwheel="F3D_Sphere.wheelElement(evt)"></ellipse><ellipse id="ellipse_51" cx="400" cy="606" rx="47" ry="47" class="draggable" onmouseover="F3D_Sphere.overElement(evt)" onmouseout="F3D_Sphere.outElement(evt)" onwheel="F3D_Sphere.wheelElement(evt)" fill="0000FF"></ellipse></g><g id="line_group" fill="#0000FF"><polygon name="polygon" points="185.61325600973055,46.08531206934242 124.45994200729788,287.31398405200696 153.3802671734111,295.267073472688 224.17368956454814,56.68943129691729" fill="0000FF"></polygon><polygon name="polygon" points="124.07556105980606,289.49629713027366 114.0503740398707,388.99753142018244 133.80001494875881,391.9899012548625 153.70002242313825,293.9848518822937" fill="0000FF"></polygon><polygon name="polygon" points="114.01839929909858,390.60633938331966 118.00919964954929,456.30316969165983 127.97932456435935,456.4542321903691 133.9586491287187,390.90846438073817" fill="0000FF"></polygon></g><g id="f3dsphere_group" fill="#0000FF"><ellipse id="ellipse_53" cx="205" cy="51" rx="20" ry="20" class="draggable" onmouseover="F3D_Sphere.overElement(evt)" onmouseout="F3D_Sphere.outElement(evt)" onwheel="F3D_Sphere.wheelElement(evt)"></ellipse><ellipse id="ellipse_55" cx="139" cy="291" rx="15" ry="15" class="draggable" onmouseover="F3D_Sphere.overElement(evt)" onmouseout="F3D_Sphere.outElement(evt)" onwheel="F3D_Sphere.wheelElement(evt)"></ellipse><ellipse id="ellipse_57" cx="124" cy="390" rx="10" ry="10" class="draggable" onmouseover="F3D_Sphere.overElement(evt)" onmouseout="F3D_Sphere.outElement(evt)" onwheel="F3D_Sphere.wheelElement(evt)"></ellipse><ellipse id="ellipse_59" cx="123" cy="456" rx="5" ry="5" class="draggable" onmouseover="F3D_Sphere.overElement(evt)" onmouseout="F3D_Sphere.outElement(evt)" onwheel="F3D_Sphere.wheelElement(evt)" fill="0000FF"></ellipse></g><g id="line_group" fill="#0000FF"><polygon name="polygon" points="191.12802184659648,498.62181550463765 249.84601638494735,665.9663616284782 278.4113143644888,656.8389883095715 229.21508581931838,486.45198441276204" fill="0000FF"></polygon><polygon name="polygon" points="252.39968030806108,670.5096047785811 302.26645353870737,731.3397365190541 318.47404871499515,719.6905274860973 276.7110730724927,653.0357912291458" fill="0000FF"></polygon><polygon name="polygon" points="303.4822493437668,732.5841233101244 360.7411246718834,781.7920616550622 367.7304910486406,774.6708204410077 317.4609820972812,718.3416408820153" fill="0000FF"></polygon></g><g id="f3dsphere_group" fill="#0000FF"><ellipse id="ellipse_61" cx="210" cy="492" rx="20" ry="20" class="draggable" onmouseover="F3D_Sphere.overElement(evt)" onmouseout="F3D_Sphere.outElement(evt)" onwheel="F3D_Sphere.wheelElement(evt)"></ellipse><ellipse id="ellipse_63" cx="264" cy="661" rx="15" ry="15" class="draggable" onmouseover="F3D_Sphere.overElement(evt)" onmouseout="F3D_Sphere.outElement(evt)" onwheel="F3D_Sphere.wheelElement(evt)"></ellipse><ellipse id="ellipse_65" cx="310" cy="725" rx="10" ry="10" class="draggable" onmouseover="F3D_Sphere.overElement(evt)" onmouseout="F3D_Sphere.outElement(evt)" onwheel="F3D_Sphere.wheelElement(evt)"></ellipse><ellipse id="ellipse_67" cx="364" cy="778" rx="5" ry="5" class="draggable" onmouseover="F3D_Sphere.overElement(evt)" onmouseout="F3D_Sphere.outElement(evt)" onwheel="F3D_Sphere.wheelElement(evt)"></ellipse></g><g id="line_group" fill="#0000FF"><polygon name="polygon" points="383.04907608032227,669.7855186462402 456.049072265625,723.7855186462402 511.95094299316406,648.214469909668 438.9509468078613,594.214469909668" fill="0000FF"></polygon><polygon name="polygon" points="461.71731185913086,727.3821506500244 526.7173080444336,762.3821487426758 571.2826957702637,679.6178550720215 506.28269958496094,644.6178550720215" fill="0000FF"></polygon><polygon name="polygon" points="534.8268890380859,765.8120880126953 749.8268737792969,833.8120880126953 778.1731262207031,744.187931060791 563.1731262207031,676.1879348754883" fill="0000FF"></polygon></g><g id="f3dsphere_group" fill="#0000FF"><ellipse id="ellipse_69" cx="411" cy="632" rx="47" ry="47" class="draggable" onmouseover="F3D_Sphere.overElement(evt)" onmouseout="F3D_Sphere.outElement(evt)" onwheel="F3D_Sphere.wheelElement(evt)"></ellipse><ellipse id="ellipse_71" cx="484" cy="686" rx="47" ry="47" class="draggable" onmouseover="F3D_Sphere.overElement(evt)" onmouseout="F3D_Sphere.outElement(evt)" onwheel="F3D_Sphere.wheelElement(evt)"></ellipse><ellipse id="ellipse_73" cx="549" cy="721" rx="47" ry="47" class="draggable" onmouseover="F3D_Sphere.overElement(evt)" onmouseout="F3D_Sphere.outElement(evt)" onwheel="F3D_Sphere.wheelElement(evt)"></ellipse><ellipse id="ellipse_75" cx="764" cy="789" rx="47" ry="47" class="draggable" onmouseover="F3D_Sphere.overElement(evt)" onmouseout="F3D_Sphere.outElement(evt)" onwheel="F3D_Sphere.wheelElement(evt)" fill="0000FF"></ellipse></g><g id="line_group" fill="#0000FF"><polygon name="polygon" points="678.2978897094727,619.8974990844727 798.2978897094727,558.8974990844727 755.7021026611328,475.1024932861328 635.7021026611328,536.1024932861328" fill="0000FF"></polygon><polygon name="polygon" points="793.950325012207,560.8370532989502 868.950325012207,531.8370532989502 835.049674987793,444.1629467010498 760.0496673583984,473.1629467010498" fill="0000FF"></polygon></g><g id="f3dsphere_group" fill="#0000FF"><ellipse id="ellipse_77" cx="657" cy="578" rx="47" ry="47" class="draggable" onmouseover="F3D_Sphere.overElement(evt)" onmouseout="F3D_Sphere.outElement(evt)" onwheel="F3D_Sphere.wheelElement(evt)"></ellipse><ellipse id="ellipse_79" cx="777" cy="517" rx="47" ry="47" class="draggable" onmouseover="F3D_Sphere.overElement(evt)" onmouseout="F3D_Sphere.outElement(evt)" onwheel="F3D_Sphere.wheelElement(evt)"></ellipse><ellipse id="ellipse_81" cx="852" cy="488" rx="47" ry="47" class="draggable" onmouseover="F3D_Sphere.overElement(evt)" onmouseout="F3D_Sphere.outElement(evt)" onwheel="F3D_Sphere.wheelElement(evt)" fill="0000FF"></ellipse></g></svg>